<svg xmlns="http://www.w3.org/2000/svg" viewBox="0 0 512 512" role="img" aria-label="PhotoVerify logo">
  <defs>
    <linearGradient id="bodyGrad" x1="0" y1="0" x2="1" y2="1">
      <stop offset="0%" stop-color="#1f2937"/>
      <stop offset="100%" stop-color="#111827"/>
    </linearGradient>
    <linearGradient id="accentGrad" x1="0" y1="0" x2="1" y2="1">
      <stop offset="0%" stop-color="#22c55e"/>
      <stop offset="100%" stop-color="#16a34a"/>
    </linearGradient>
    <linearGradient id="lensGrad" x1="0" y1="0" x2="1" y2="1">
      <stop offset="0%" stop-color="#93c5fd"/>
      <stop offset="100%" stop-color="#1d4ed8"/>
    </linearGradient>
    <filter id="shadow" x="-20%" y="-20%" width="140%" height="140%">
      <feDropShadow dx="0" dy="10" stdDeviation="10" flood-color="#000000" flood-opacity="0.18"/>
    </filter>
  </defs>

  <rect width="512" height="512" rx="96" fill="#f8fafc"/>

  <g filter="url(#shadow)">
    <path d="M118 180h66l24-34c9-13 24-20 40-20h89c16 0 31 7 40 20l24 34h15c28 0 50 22 50 50v105c0 28-22 50-50 50H118c-28 0-50-22-50-50V230c0-28 22-50 50-50z" fill="url(#bodyGrad)"/>
    <rect x="150" y="158" width="86" height="22" rx="11" fill="#374151"/>
    <circle cx="260" cy="280" r="95" fill="#0f172a"/>
    <circle cx="260" cy="280" r="76" fill="url(#lensGrad)"/>
    <circle cx="260" cy="280" r="50" fill="#0f172a" opacity="0.85"/>
    <circle cx="232" cy="246" r="18" fill="#ffffff" opacity="0.35"/>
    <circle cx="410" cy="214" r="12" fill="#22c55e"/>
  </g>

  <g>
    <circle cx="366" cy="365" r="74" fill="url(#accentGrad)" stroke="#f8fafc" stroke-width="16"/>
    <path d="M331 365l22 22 47-54" fill="none" stroke="#ffffff" stroke-width="18" stroke-linecap="round" stroke-linejoin="round"/>
  </g>
</svg>
